<?xml version="1.0" encoding="utf-8"?>

<!DOCTYPE svg PUBLIC "-//W3C//DTD SVG 1.1//EN" "http://www.w3.org/Graphics/SVG/1.1/DTD/svg11.dtd">
<!-- Uploaded to: SVG Repo, www.svgrepo.com, Generator: SVG Repo Mixer Tools -->
<svg height="800px" width="800px" version="1.1" id="_x32_" xmlns="http://www.w3.org/2000/svg" xmlns:xlink="http://www.w3.org/1999/xlink" 
	 viewBox="0 0 512 512"  xml:space="preserve">
<style type="text/css">
	.st0{fill:#000000;}
</style>
<g>
	<path class="st0" d="M489.518,201.801C484.932,88.594,392.72,0,279.307,0C166.021,0,73.349,89.983,69.025,202.237
		c-14.52,28.421-40.695,81.771-41.893,84.215c-6.784,13.536-7.038,29.476-0.587,43.479c6.427,13.965,18.677,24.129,33.61,27.865
		l9.585,2.404c4.649,20.986,11.639,52.62,13.829,62.673c8.251,37.973,28.198,54.176,66.696,54.176
		c5.332,0,10.759-0.318,16.043-0.834v3.285V512h32.499h190.645h32.499v-32.499v-66.719c0-21.74,6.712-42.822,17.948-56.389
		C486.162,300.559,492.462,241.623,489.518,201.801z M414.872,335.66c-18.772,22.661-25.421,52.962-25.421,77.122v66.719H198.806
		v-42.155c0,0-26.294,7.205-48.542,7.205c-22.232,0-29.833-5.094-34.943-28.596c-3.38-15.519-18.193-82.406-18.193-82.406
		l-29.08-7.276c-5.292-1.325-9.703-4.975-11.988-9.942c-2.286-4.959-2.198-10.687,0.245-15.567c0,0,31.801-64.823,45.059-90.356
		c0.016-98.258,79.677-177.911,177.943-177.911c95.997,0,174.19,76.034,177.76,171.158
		C459.963,241.362,452.623,290.102,414.872,335.66z"/>
	<path class="st0" d="M279.307,93.093c-64.815,0-117.34,52.534-117.34,117.349c0,64.799,52.526,117.34,117.34,117.34
		c64.8,0,117.34-52.541,117.34-117.34C396.647,145.626,344.107,93.093,279.307,93.093z M279.307,299.044v-88.602h-88.61
		c0-48.938,39.671-88.611,88.61-88.611v88.611h88.602C367.909,259.372,328.245,299.044,279.307,299.044z"/>
</g>
</svg>